<svg width="45" height="45" viewBox="0 0 45 45" fill="none" xmlns="http://www.w3.org/2000/svg">
<path d="M22.5 0.5C34.6503 0.5 44.5 10.3497 44.5 22.5C44.5 34.6503 34.6503 44.5 22.5 44.5C10.3497 44.5 0.5 34.6503 0.5 22.5C0.5 10.3497 10.3497 0.5 22.5 0.5Z" fill="white" fill-opacity="0.2"/>
<path d="M22.5 0.5C34.6503 0.5 44.5 10.3497 44.5 22.5C44.5 34.6503 34.6503 44.5 22.5 44.5C10.3497 44.5 0.5 34.6503 0.5 22.5C0.5 10.3497 10.3497 0.5 22.5 0.5Z" stroke="#FF002D"/>
<path d="M32.5576 22.7275L32.5059 22.7783L32.5557 22.8281L19.8281 35.5566L17 32.7275L26.9492 22.7773L17.001 12.8281L19.8291 10L32.5576 22.7275Z" fill="#FF002D"/>
</svg>
