<svg width="150" height="170" viewBox="0 0 150 170" fill="none" xmlns="http://www.w3.org/2000/svg">
<g clip-path="url(#clip0_6910_3133)">
<g filter="url(#filter0_di_6910_3133)">
<path d="M27 0C28.6569 0 29.955 1.37295 30.4441 2.95596C31.7047 7.03579 35.5062 10 40 10C44.4938 10 48.2953 7.03579 49.5559 2.95596C50.045 1.37294 51.3431 0 53 0H62C63.6569 0 64.955 1.37295 65.4441 2.95596C66.7047 7.03579 70.5062 10 75 10C79.4938 10 83.2953 7.03579 84.5559 2.95596C85.045 1.37294 86.3431 0 88 0H97C98.6569 0 99.955 1.37295 100.444 2.95596C101.705 7.03579 105.506 10 110 10C114.494 10 118.295 7.03579 119.556 2.95596C120.045 1.37294 121.343 0 123 0H131C133.209 0 134.946 1.82277 135.527 3.95415C136.918 9.06015 140.94 13.0816 146.046 14.4733C148.177 15.0543 150 16.7909 150 19V145C150 147.209 148.177 148.946 146.046 149.527C140.94 150.918 136.918 154.94 135.527 160.046C134.946 162.177 133.209 164 131 164H123C121.343 164 120.045 162.627 119.556 161.044C118.295 156.964 114.494 154 110 154C105.506 154 101.705 156.964 100.444 161.044C99.955 162.627 98.6569 164 97 164H88C86.3431 164 85.045 162.627 84.5559 161.044C83.2953 156.964 79.4938 154 75 154C70.5062 154 66.7047 156.964 65.4441 161.044C64.955 162.627 63.6569 164 62 164H53C51.3431 164 50.045 162.627 49.5559 161.044C48.2953 156.964 44.4938 154 40 154C35.5062 154 31.7047 156.964 30.4441 161.044C29.955 162.627 28.6569 164 27 164H19C16.7909 164 15.0543 162.177 14.4733 160.046C13.0816 154.94 9.06015 150.918 3.95415 149.527C1.82277 148.946 0 147.209 0 145V19C0 16.7909 1.82277 15.0543 3.95415 14.4733C9.06015 13.0816 13.0816 9.06015 14.4733 3.95415C15.0543 1.82277 16.7909 0 19 0H27Z" fill="url(#paint0_linear_6910_3133)"/>
</g>
<path d="M97 0C98.6569 0 99.9552 1.37304 100.444 2.95605C100.995 4.73681 102.029 6.3049 103.394 7.50684L33.7031 156.23C32.185 157.462 31.0355 159.131 30.4443 161.044C29.9552 162.627 28.6569 164 27 164H19C16.7909 164 15.0546 162.177 14.4736 160.046C14.4173 159.839 14.3538 159.635 14.2891 159.433L88.999 0H97ZM131 0C133.209 0 134.945 1.82277 135.526 3.9541C136.438 7.29923 138.479 10.1785 141.214 12.1582L74.7461 154.005C70.3635 154.114 66.6812 157.041 65.4443 161.044C64.9552 162.627 63.6569 164 62 164H53C52.723 164 52.457 163.958 52.2021 163.887L128.999 0H131ZM150 78.7715L114.295 154.967C112.994 154.347 111.537 154 110 154C105.506 154 101.705 156.964 100.444 161.044C99.9552 162.627 98.6569 164 97 164H92.1494L150 40.5439V78.7715ZM150 145C150 147.209 148.177 148.945 146.046 149.526C140.94 150.918 136.918 154.94 135.526 160.046C135.06 161.758 133.848 163.269 132.244 163.798L150 125.906V145ZM62 0C63.6569 0 64.9552 1.37304 65.4443 2.95605C65.4549 2.9904 65.4666 3.02441 65.4775 3.05859L0 142.793V104.565L44.9189 8.70605C47.1162 7.46194 48.7968 5.41207 49.5557 2.95605C50.0448 1.37304 51.3431 2.4696e-08 53 0H62ZM0 57.4307V19C0 16.7909 1.82277 15.0546 3.9541 14.4736C9.06009 13.0819 13.0819 9.06009 14.4736 3.9541C15.0546 1.82277 16.7909 1.14753e-07 19 0H26.9121L0 57.4307Z" fill="white" fill-opacity="0.12"/>
<g filter="url(#filter1_di_6910_3133)">
<rect x="17" y="25" width="116" height="114" rx="21" fill="url(#paint1_linear_6910_3133)"/>
</g>
<g filter="url(#filter2_f_6910_3133)">
<ellipse cx="75" cy="122.5" rx="35" ry="5.5" fill="url(#paint2_radial_6910_3133)"/>
</g>
<path d="M46.5381 103.098L48.8189 101.047C60.239 109.532 75.083 118.063 87.8684 121.568L88.5564 125.326C71.5203 118.709 61.7887 113.485 46.5381 103.098Z" fill="url(#paint3_linear_6910_3133)"/>
<path d="M87.8686 121.568L88.5566 125.326C94.5529 106.905 105.711 80.4473 116.127 68.6319L115.384 66.6433C104.04 81.3816 96.579 97.6303 87.8686 121.568Z" fill="#456B09"/>
<path d="M77.8255 53.2227C93.7462 53.1258 107.161 59.0343 115.385 66.643C102.788 82.8225 95.8979 100.12 87.8703 121.568C73.8862 117.734 56.9862 107.301 48.8207 101.046C62.7913 89.2595 73.3909 72.5325 77.8255 53.2227Z" fill="url(#paint4_linear_6910_3133)"/>
<path d="M82.7847 58.4494C93.9857 59.7216 101.759 62.8226 107.986 67.3904C98.0645 81.1624 91.9402 96.4748 84.8186 113.63C75.1759 110.581 65.4815 104.837 58.949 100.056C69.9351 89.5233 78.6805 74.3093 82.7847 58.4494Z" fill="url(#paint5_linear_6910_3133)" stroke="#CDFF65" stroke-width="5"/>
<ellipse cx="84.6985" cy="84.5565" rx="12.0143" ry="11.6187" transform="rotate(15.3307 84.6985 84.5565)" fill="#CDFF65"/>
<path d="M93.7867 83.3227L92.8726 85.3517L92.0075 84.9493C91.9713 85.0647 91.8978 85.2454 91.787 85.4914C91.6762 85.7373 91.5897 85.9119 91.5273 86.0151L92.3924 86.4175L91.4783 88.4465L90.2003 87.8521C89.3577 88.6666 88.3808 89.146 87.2694 89.2902C86.1643 89.4207 84.976 89.1903 83.7045 88.5989L81.7384 87.6844L79.7901 92.009L77.0768 90.747L80.4285 83.3072L79.5831 82.9139L80.4972 80.8849L81.3427 81.2781L81.8228 80.2124L80.9773 79.8191L81.8914 77.7901L82.7369 78.1833L84.1404 75.068L88.6429 77.1622C89.9536 77.7718 90.9316 78.5572 91.5767 79.5183C92.241 80.4718 92.5451 81.5388 92.489 82.7191L93.7867 83.3227ZM85.9396 78.359L85.4502 79.4453L89.4218 81.2925C89.1713 80.3001 88.4824 79.5418 87.3552 79.0175L85.9396 78.359ZM89.0148 84.2019C89.1256 83.956 89.199 83.7753 89.2352 83.6599L84.5361 81.4743L84.0559 82.5401L88.755 84.7257C88.8174 84.6225 88.904 84.4479 89.0148 84.2019ZM84.0773 86.2933C85.2046 86.8176 86.2101 86.8556 87.0938 86.4072L83.1418 84.5691L82.6617 85.6349L84.0773 86.2933Z" fill="#408A09"/>
<g filter="url(#filter3_d_6910_3133)">
<path d="M33 107.172L35 104.172C51 110.172 71 115.172 87 115.172L89 119.172C67.0593 116.991 54.0653 114.126 33 107.172Z" fill="#537D12"/>
<path d="M87 115.172L89 119.172C90.1014 96.6877 94.6461 63.6117 103 47.1719L101.5 45.1719C93 65.1719 89.5 85.6719 87 115.172Z" fill="#537D12"/>
<path d="M53.5 41.672C72 36.6726 89.5 39.1723 101.5 45.172C92 67.1724 89.5 88.6724 87 115.172C69.5 115.172 46.5 108.673 35 104.172C47.5 86.6724 54.5 64.6724 53.5 41.672Z" fill="url(#paint6_linear_6910_3133)"/>
<path d="M60.4199 45.6729C74.3775 43.5239 84.7466 44.6693 93.748 48.0674C86.4688 66.7149 84.24 85.9282 81.3828 107.634C68.7473 107.245 55.0868 103.606 45.7822 100.142C55.3657 84.893 60.774 64.912 60.4199 45.6729Z" fill="url(#paint7_linear_6910_3133)" stroke="#CDFF65" stroke-width="5"/>
<ellipse cx="71.5" cy="74.6719" rx="14.5" ry="13.5" fill="#CDFF65"/>
<path d="M81.6842 70.4968L81.2677 73.0513L80.1324 72.8662C80.1271 73.0066 80.0993 73.2316 80.0488 73.5412C79.9983 73.8509 79.9532 74.0731 79.9136 74.2079L81.0489 74.393L80.6324 76.9475L78.9552 76.6741C78.2344 77.8457 77.2502 78.6829 76.0027 79.1859C74.758 79.6717 73.3013 79.7785 71.6327 79.5064L69.0524 79.0857L68.1647 84.5301L64.6038 83.9495L66.1311 74.583L65.0216 74.4021L65.4381 71.8476L66.5476 72.0285L66.7664 70.6868L65.6569 70.5059L66.0734 67.9514L67.1829 68.1323L67.8224 64.2102L73.7313 65.1737C75.4515 65.4542 76.8404 66.0338 77.8979 66.9126C78.9755 67.777 79.6699 68.8792 79.9812 70.2191L81.6842 70.4968ZM70.9667 67.3453L70.7437 68.7129L75.9559 69.5628C75.3477 68.5276 74.3039 67.8895 72.8245 67.6482L70.9667 67.3453ZM76.4105 72.948C76.461 72.6384 76.4889 72.4133 76.4941 72.2729L70.3272 71.2674L70.1084 72.6091L76.2754 73.6147C76.315 73.4799 76.3601 73.2576 76.4105 72.948ZM71.3309 76.8083C72.8103 77.0495 73.9928 76.7832 74.8783 76.0093L69.6919 75.1636L69.4731 76.5054L71.3309 76.8083Z" fill="#408A09"/>
</g>
</g>
<defs>
<filter id="filter0_di_6910_3133" x="0" y="-2" width="150" height="172" filterUnits="userSpaceOnUse" color-interpolation-filters="sRGB">
<feFlood flood-opacity="0" result="BackgroundImageFix"/>
<feColorMatrix in="SourceAlpha" type="matrix" values="0 0 0 0 0 0 0 0 0 0 0 0 0 0 0 0 0 0 127 0" result="hardAlpha"/>
<feOffset dy="6"/>
<feComposite in2="hardAlpha" operator="out"/>
<feColorMatrix type="matrix" values="0 0 0 0 0.105882 0 0 0 0 0.317647 0 0 0 0 0.0509804 0 0 0 1 0"/>
<feBlend mode="normal" in2="BackgroundImageFix" result="effect1_dropShadow_6910_3133"/>
<feBlend mode="normal" in="SourceGraphic" in2="effect1_dropShadow_6910_3133" result="shape"/>
<feColorMatrix in="SourceAlpha" type="matrix" values="0 0 0 0 0 0 0 0 0 0 0 0 0 0 0 0 0 0 127 0" result="hardAlpha"/>
<feOffset dy="-2"/>
<feGaussianBlur stdDeviation="1"/>
<feComposite in2="hardAlpha" operator="arithmetic" k2="-1" k3="1"/>
<feColorMatrix type="matrix" values="0 0 0 0 0 0 0 0 0 1 0 0 0 0 0.376471 0 0 0 1 0"/>
<feBlend mode="normal" in2="shape" result="effect2_innerShadow_6910_3133"/>
</filter>
<filter id="filter1_di_6910_3133" x="17" y="25" width="116" height="117" filterUnits="userSpaceOnUse" color-interpolation-filters="sRGB">
<feFlood flood-opacity="0" result="BackgroundImageFix"/>
<feColorMatrix in="SourceAlpha" type="matrix" values="0 0 0 0 0 0 0 0 0 0 0 0 0 0 0 0 0 0 127 0" result="hardAlpha"/>
<feOffset dy="2"/>
<feComposite in2="hardAlpha" operator="out"/>
<feColorMatrix type="matrix" values="0 0 0 0 0 0 0 0 0 1 0 0 0 0 0.376471 0 0 0 1 0"/>
<feBlend mode="normal" in2="BackgroundImageFix" result="effect1_dropShadow_6910_3133"/>
<feBlend mode="normal" in="SourceGraphic" in2="effect1_dropShadow_6910_3133" result="shape"/>
<feColorMatrix in="SourceAlpha" type="matrix" values="0 0 0 0 0 0 0 0 0 0 0 0 0 0 0 0 0 0 127 0" result="hardAlpha"/>
<feOffset dy="3"/>
<feGaussianBlur stdDeviation="2.5"/>
<feComposite in2="hardAlpha" operator="arithmetic" k2="-1" k3="1"/>
<feColorMatrix type="matrix" values="0 0 0 0 0.105882 0 0 0 0 0.317647 0 0 0 0 0.0509804 0 0 0 1 0"/>
<feBlend mode="normal" in2="shape" result="effect2_innerShadow_6910_3133"/>
</filter>
<filter id="filter2_f_6910_3133" x="36" y="113" width="78" height="19" filterUnits="userSpaceOnUse" color-interpolation-filters="sRGB">
<feFlood flood-opacity="0" result="BackgroundImageFix"/>
<feBlend mode="normal" in="SourceGraphic" in2="BackgroundImageFix" result="shape"/>
<feGaussianBlur stdDeviation="2" result="effect1_foregroundBlur_6910_3133"/>
</filter>
<filter id="filter3_d_6910_3133" x="31" y="37" width="78" height="88.1719" filterUnits="userSpaceOnUse" color-interpolation-filters="sRGB">
<feFlood flood-opacity="0" result="BackgroundImageFix"/>
<feColorMatrix in="SourceAlpha" type="matrix" values="0 0 0 0 0 0 0 0 0 0 0 0 0 0 0 0 0 0 127 0" result="hardAlpha"/>
<feOffset dx="2" dy="2"/>
<feGaussianBlur stdDeviation="2"/>
<feComposite in2="hardAlpha" operator="out"/>
<feColorMatrix type="matrix" values="0 0 0 0 0 0 0 0 0 0 0 0 0 0 0 0 0 0 0.24 0"/>
<feBlend mode="normal" in2="BackgroundImageFix" result="effect1_dropShadow_6910_3133"/>
<feBlend mode="normal" in="SourceGraphic" in2="effect1_dropShadow_6910_3133" result="shape"/>
</filter>
<linearGradient id="paint0_linear_6910_3133" x1="75" y1="0" x2="75" y2="170" gradientUnits="userSpaceOnUse">
<stop stop-color="#86D565"/>
<stop offset="1" stop-color="#1C9602"/>
</linearGradient>
<linearGradient id="paint1_linear_6910_3133" x1="75" y1="25" x2="75" y2="139" gradientUnits="userSpaceOnUse">
<stop stop-color="#20A604"/>
<stop offset="1" stop-color="#1B510D"/>
</linearGradient>
<radialGradient id="paint2_radial_6910_3133" cx="0" cy="0" r="1" gradientUnits="userSpaceOnUse" gradientTransform="translate(75 122.5) scale(35 5.5)">
<stop stop-opacity="0.6"/>
<stop offset="1" stop-opacity="0"/>
</radialGradient>
<linearGradient id="paint3_linear_6910_3133" x1="73.999" y1="117.172" x2="88.999" y2="125.172" gradientUnits="userSpaceOnUse">
<stop stop-color="#365900"/>
<stop offset="1" stop-color="#456B09"/>
</linearGradient>
<linearGradient id="paint4_linear_6910_3133" x1="90.22" y1="54.2361" x2="72.8874" y2="117.46" gradientUnits="userSpaceOnUse">
<stop stop-color="#72C637"/>
<stop offset="1" stop-color="#5BB71F"/>
</linearGradient>
<linearGradient id="paint5_linear_6910_3133" x1="90.5159" y1="57.0663" x2="75.2495" y2="112.754" gradientUnits="userSpaceOnUse">
<stop stop-color="#80D132"/>
<stop offset="1" stop-color="#6CC133"/>
</linearGradient>
<linearGradient id="paint6_linear_6910_3133" x1="68.25" y1="39" x2="68.25" y2="115.172" gradientUnits="userSpaceOnUse">
<stop stop-color="#72C637"/>
<stop offset="1" stop-color="#5BB71F"/>
</linearGradient>
<linearGradient id="paint7_linear_6910_3133" x1="69.5" y1="42.0801" x2="69.5" y2="109.172" gradientUnits="userSpaceOnUse">
<stop stop-color="#80D132"/>
<stop offset="1" stop-color="#6CC133"/>
</linearGradient>
<clipPath id="clip0_6910_3133">
<rect width="150" height="170" fill="white"/>
</clipPath>
</defs>
</svg>
